<?xml version="1.0" encoding="UTF-8" standalone="no"?><svg xmlns="http://www.w3.org/2000/svg" xmlns:xlink="http://www.w3.org/1999/xlink" contentStyleType="text/css" height="357px" preserveAspectRatio="none" style="width:744px;height:357px;background:#FFFFFF;" version="1.1" viewBox="0 0 744 357" width="744px" zoomAndPan="magnify"><defs/><g><!--MD5=[e69828dec1dbb2627e683807b1b11ce9]
cluster Frameworks--><g id="cluster_Frameworks"><path d="M8.5,6 L95.5,6 A3.75,3.75 0 0 1 98,8.5 L105,29.6094 L734.5,29.6094 A2.5,2.5 0 0 1 737,32.1094 L737,347.5 A2.5,2.5 0 0 1 734.5,350 L8.5,350 A2.5,2.5 0 0 1 6,347.5 L6,8.5 A2.5,2.5 0 0 1 8.5,6 " fill="none" style="stroke:#000000;stroke-width:1.5;"/><line style="stroke:#000000;stroke-width:1.5;" x1="6" x2="105" y1="29.6094" y2="29.6094"/><text fill="#000000" font-family="sans-serif" font-size="14" font-weight="bold" lengthAdjust="spacing" textLength="86" x="10" y="22.5332">Frameworks</text></g><!--MD5=[aedc30b8666742a3000193d7e0a0b93e]
cluster Adapters--><g id="cluster_Adapters"><path d="M288.5,50 L352.5,50 A3.75,3.75 0 0 1 355,52.5 L362,73.6094 L710.5,73.6094 A2.5,2.5 0 0 1 713,76.1094 L713,323.5 A2.5,2.5 0 0 1 710.5,326 L288.5,326 A2.5,2.5 0 0 1 286,323.5 L286,52.5 A2.5,2.5 0 0 1 288.5,50 " fill="none" style="stroke:#000000;stroke-width:1.5;"/><line style="stroke:#000000;stroke-width:1.5;" x1="286" x2="362" y1="73.6094" y2="73.6094"/><text fill="#000000" font-family="sans-serif" font-size="14" font-weight="bold" lengthAdjust="spacing" textLength="63" x="290" y="66.5332">Adapters</text></g><!--MD5=[31dba395c9eaf094b46e02af010209cd]
cluster Application Rules--><g id="cluster_Application Rules"><path d="M413.5,94 L536.5,94 A3.75,3.75 0 0 1 539,96.5 L546,117.6094 L686.5,117.6094 A2.5,2.5 0 0 1 689,120.1094 L689,249.5 A2.5,2.5 0 0 1 686.5,252 L413.5,252 A2.5,2.5 0 0 1 411,249.5 L411,96.5 A2.5,2.5 0 0 1 413.5,94 " fill="none" style="stroke:#000000;stroke-width:1.5;"/><line style="stroke:#000000;stroke-width:1.5;" x1="411" x2="546" y1="117.6094" y2="117.6094"/><text fill="#000000" font-family="sans-serif" font-size="14" font-weight="bold" lengthAdjust="spacing" textLength="122" x="415" y="110.5332">Application Rules</text></g><!--MD5=[8b76c75c5649a9da9e0d0e3689f31e1c]
cluster Enterprise Rules--><g id="cluster_Enterprise Rules"><path d="M533.5,138 L652.5,138 A3.75,3.75 0 0 1 655,140.5 L662,161.6094 L662.5,161.6094 A2.5,2.5 0 0 1 665,164.1094 L665,225.5 A2.5,2.5 0 0 1 662.5,228 L533.5,228 A2.5,2.5 0 0 1 531,225.5 L531,140.5 A2.5,2.5 0 0 1 533.5,138 " fill="none" style="stroke:#000000;stroke-width:1.5;"/><line style="stroke:#000000;stroke-width:1.5;" x1="531" x2="662" y1="161.6094" y2="161.6094"/><text fill="#000000" font-family="sans-serif" font-size="14" font-weight="bold" lengthAdjust="spacing" textLength="118" x="535" y="154.5332">Enterprise Rules</text></g><!--MD5=[c42ed81cef7fdd2e33758127945b9a5b]
entity UI--><g id="elem_UI"><rect fill="#F1F1F1" height="37.6094" rx="2.5" ry="2.5" style="stroke:#181818;stroke-width:0.5;" width="32" x="208" y="272"/><text fill="#000000" font-family="sans-serif" font-size="14" lengthAdjust="spacing" textLength="12" x="218" y="296.5332">UI</text></g><!--MD5=[b4e379c92a2479adce0e35284e67f6ff]
entity Data Base--><g id="elem_Data Base"><rect fill="#F1F1F1" height="37.6094" rx="2.5" ry="2.5" style="stroke:#181818;stroke-width:0.5;" width="86" x="181" y="174"/><text fill="#000000" font-family="sans-serif" font-size="14" lengthAdjust="spacing" textLength="66" x="191" y="198.5332">Data Base</text></g><!--MD5=[e99fdff8138d2cc4f6a259b7b9900664]
entity External devices--><g id="elem_External devices"><rect fill="#F1F1F1" height="37.6094" rx="2.5" ry="2.5" style="stroke:#181818;stroke-width:0.5;" width="123" x="22.5" y="174"/><text fill="#000000" font-family="sans-serif" font-size="14" lengthAdjust="spacing" textLength="103" x="32.5" y="198.5332">External devices</text></g><!--MD5=[3193059314a247eafe92785e7a6ac74f]
entity Web--><g id="elem_Web"><rect fill="#F1F1F1" height="37.6094" rx="2.5" ry="2.5" style="stroke:#181818;stroke-width:0.5;" width="49" x="59.5" y="272"/><text fill="#000000" font-family="sans-serif" font-size="14" lengthAdjust="spacing" textLength="29" x="69.5" y="296.5332">Web</text></g><!--MD5=[1b9dce2ce56fb0e0072eca4d439af425]
entity Controllers--><g id="elem_Controllers"><rect fill="#F1F1F1" height="37.6094" rx="2.5" ry="2.5" style="stroke:#181818;stroke-width:0.5;" width="89" x="302.5" y="272"/><text fill="#000000" font-family="sans-serif" font-size="14" lengthAdjust="spacing" textLength="69" x="312.5" y="296.5332">Controllers</text></g><!--MD5=[c936d085f42e8d84bba7fe20f867a7f1]
entity Presenters--><g id="elem_Presenters"><rect fill="#F1F1F1" height="37.6094" rx="2.5" ry="2.5" style="stroke:#181818;stroke-width:0.5;" width="89" x="302.5" y="174"/><text fill="#000000" font-family="sans-serif" font-size="14" lengthAdjust="spacing" textLength="69" x="312.5" y="198.5332">Presenters</text></g><!--MD5=[ae94c1d0aa37d34b3e3f4c726d353a0a]
entity Use Cases--><g id="elem_Use Cases"><rect fill="#F1F1F1" height="37.6094" rx="2.5" ry="2.5" style="stroke:#181818;stroke-width:0.5;" width="88" x="427" y="174"/><text fill="#000000" font-family="sans-serif" font-size="14" lengthAdjust="spacing" textLength="68" x="437" y="198.5332">Use Cases</text></g><!--MD5=[c50b3378b09b932373c7c3bb734d8dba]
entity Entities--><g id="elem_Entities"><rect fill="#F1F1F1" height="37.6094" rx="2.5" ry="2.5" style="stroke:#181818;stroke-width:0.5;" width="66" x="566" y="174"/><text fill="#000000" font-family="sans-serif" font-size="14" lengthAdjust="spacing" textLength="46" x="576" y="198.5332">Entities</text></g><!--MD5=[fa9a1852c47cb579515e7ab53391bb68]
link Data Base to UI--><!--MD5=[e87ae7c1b784f2e2b1fbb3a7e91c7b88]
link External devices to Web--><!--MD5=[516d7160a269396fc3e4660847043a59]
link Presenters to Controllers--><!--MD5=[6c491ca26295fb2cdea53e8b69881049]
@startuml
'https://plantuml.com/object-diagram

skinparam componentStyle rectangle


package Frameworks {
    [UI]
    [Data Base]
    [External devices]
    [Web]

    package Adapters {
        [Controllers]
        [Presenters]

        package "Application Rules" {
            [Use Cases]
            package "Enterprise Rules" {
                [Entities]
            }
        }
    }
}

[Data Base] -[hidden]d-> [UI]
[External devices] -[hidden]d-> [Web]
[Presenters] -[hidden]d-> [Controllers]

@enduml

@startuml

skinparam componentStyle rectangle


package Frameworks {
    [UI]
    [Data Base]
    [External devices]
    [Web]

    package Adapters {
        [Controllers]
        [Presenters]

        package "Application Rules" {
            [Use Cases]
            package "Enterprise Rules" {
                [Entities]
            }
        }
    }
}

[Data Base] -[hidden]d-> [UI]
[External devices] -[hidden]d-> [Web]
[Presenters] -[hidden]d-> [Controllers]

@enduml

PlantUML version 1.2022.12(Sun Oct 23 20:12:26 CEST 2022)
(GPL source distribution)
Java Runtime: OpenJDK Runtime Environment
JVM: OpenJDK 64-Bit Server VM
Default Encoding: Cp1250
Language: en
Country: US
--></g></svg>