<?xml version="1.0" encoding="UTF-8" standalone="no"?><svg xmlns="http://www.w3.org/2000/svg" xmlns:xlink="http://www.w3.org/1999/xlink" contentStyleType="text/css" height="252px" preserveAspectRatio="none" style="width:341px;height:252px;background:#FFFFFF;" version="1.1" viewBox="0 0 341 252" width="341px" zoomAndPan="magnify"><defs/><g><rect fill="#F1F1F1" height="64.8281" rx="5" ry="5" style="stroke:#F1F1F1;stroke-width:1.5;" width="77" x="10" y="94"/><text fill="#000000" font-family="sans-serif" font-size="14" font-weight="bold" lengthAdjust="spacing" textLength="45" x="15" y="110.5332">user-1</text><text fill="#000000" font-family="sans-serif" font-size="14" lengthAdjust="spacing" textLength="12" x="70" y="110.5332">   </text><line style="stroke:#000000;stroke-width:1.0;" x1="65" x2="65" y1="94" y2="115.6094"/><line style="stroke:#000000;stroke-width:1.0;" x1="10" x2="87" y1="115.6094" y2="115.6094"/><text fill="#000000" font-family="sans-serif" font-size="14" font-weight="bold" lengthAdjust="spacing" textLength="45" x="15" y="132.1426">user-2</text><text fill="#000000" font-family="sans-serif" font-size="14" lengthAdjust="spacing" textLength="12" x="70" y="132.1426">   </text><line style="stroke:#000000;stroke-width:1.0;" x1="65" x2="65" y1="115.6094" y2="137.2188"/><line style="stroke:#000000;stroke-width:1.0;" x1="10" x2="87" y1="137.2188" y2="137.2188"/><text fill="#000000" font-family="sans-serif" font-size="14" font-weight="bold" lengthAdjust="spacing" textLength="45" x="15" y="153.752">user-3</text><text fill="#000000" font-family="sans-serif" font-size="14" lengthAdjust="spacing" textLength="12" x="70" y="153.752">   </text><line style="stroke:#000000;stroke-width:1.0;" x1="65" x2="65" y1="137.2188" y2="158.8281"/><rect fill="none" height="64.8281" rx="5" ry="5" style="stroke:#000000;stroke-width:1.5;" width="77" x="10" y="94"/><rect fill="#F1F1F1" height="64.8281" rx="5" ry="5" style="stroke:#F1F1F1;stroke-width:1.5;" width="205" x="124" y="10"/><text fill="#000000" font-family="sans-serif" font-size="14" font-weight="bold" lengthAdjust="spacing" textLength="74" x="129" y="26.5332">quizWords</text><text fill="#000000" font-family="sans-serif" font-size="14" lengthAdjust="spacing" textLength="111" x="213" y="26.5332">user-1 quiz words</text><line style="stroke:#000000;stroke-width:1.0;" x1="208" x2="208" y1="10" y2="31.6094"/><line style="stroke:#000000;stroke-width:1.0;" x1="124" x2="329" y1="31.6094" y2="31.6094"/><text fill="#000000" font-family="sans-serif" font-size="14" font-weight="bold" lengthAdjust="spacing" textLength="53" x="129" y="48.1426">quizzes</text><text fill="#000000" font-family="sans-serif" font-size="14" lengthAdjust="spacing" textLength="91" x="213" y="48.1426">user-1 quizzes</text><line style="stroke:#000000;stroke-width:1.0;" x1="208" x2="208" y1="31.6094" y2="53.2188"/><line style="stroke:#000000;stroke-width:1.0;" x1="124" x2="329" y1="53.2188" y2="53.2188"/><text fill="#000000" font-family="sans-serif" font-size="14" font-weight="bold" lengthAdjust="spacing" textLength="32" x="129" y="69.752">user</text><text fill="#000000" font-family="sans-serif" font-size="14" lengthAdjust="spacing" textLength="73" x="213" y="69.752">user-1 data</text><line style="stroke:#000000;stroke-width:1.0;" x1="208" x2="208" y1="53.2188" y2="74.8281"/><rect fill="none" height="64.8281" rx="5" ry="5" style="stroke:#000000;stroke-width:1.5;" width="205" x="124" y="10"/><rect fill="#F1F1F1" height="64.8281" rx="5" ry="5" style="stroke:#F1F1F1;stroke-width:1.5;" width="205" x="124" y="93"/><text fill="#000000" font-family="sans-serif" font-size="14" font-weight="bold" lengthAdjust="spacing" textLength="74" x="129" y="109.5332">quizWords</text><text fill="#000000" font-family="sans-serif" font-size="14" lengthAdjust="spacing" textLength="111" x="213" y="109.5332">user-2 quiz words</text><line style="stroke:#000000;stroke-width:1.0;" x1="208" x2="208" y1="93" y2="114.6094"/><line style="stroke:#000000;stroke-width:1.0;" x1="124" x2="329" y1="114.6094" y2="114.6094"/><text fill="#000000" font-family="sans-serif" font-size="14" font-weight="bold" lengthAdjust="spacing" textLength="53" x="129" y="131.1426">quizzes</text><text fill="#000000" font-family="sans-serif" font-size="14" lengthAdjust="spacing" textLength="91" x="213" y="131.1426">user-2 quizzes</text><line style="stroke:#000000;stroke-width:1.0;" x1="208" x2="208" y1="114.6094" y2="136.2188"/><line style="stroke:#000000;stroke-width:1.0;" x1="124" x2="329" y1="136.2188" y2="136.2188"/><text fill="#000000" font-family="sans-serif" font-size="14" font-weight="bold" lengthAdjust="spacing" textLength="32" x="129" y="152.752">user</text><text fill="#000000" font-family="sans-serif" font-size="14" lengthAdjust="spacing" textLength="73" x="213" y="152.752">user-2 data</text><line style="stroke:#000000;stroke-width:1.0;" x1="208" x2="208" y1="136.2188" y2="157.8281"/><rect fill="none" height="64.8281" rx="5" ry="5" style="stroke:#000000;stroke-width:1.5;" width="205" x="124" y="93"/><rect fill="#F1F1F1" height="64.8281" rx="5" ry="5" style="stroke:#F1F1F1;stroke-width:1.5;" width="205" x="124" y="176"/><text fill="#000000" font-family="sans-serif" font-size="14" font-weight="bold" lengthAdjust="spacing" textLength="74" x="129" y="192.5332">quizWords</text><text fill="#000000" font-family="sans-serif" font-size="14" lengthAdjust="spacing" textLength="111" x="213" y="192.5332">user-3 quiz words</text><line style="stroke:#000000;stroke-width:1.0;" x1="208" x2="208" y1="176" y2="197.6094"/><line style="stroke:#000000;stroke-width:1.0;" x1="124" x2="329" y1="197.6094" y2="197.6094"/><text fill="#000000" font-family="sans-serif" font-size="14" font-weight="bold" lengthAdjust="spacing" textLength="53" x="129" y="214.1426">quizzes</text><text fill="#000000" font-family="sans-serif" font-size="14" lengthAdjust="spacing" textLength="91" x="213" y="214.1426">user-3 quizzes</text><line style="stroke:#000000;stroke-width:1.0;" x1="208" x2="208" y1="197.6094" y2="219.2188"/><line style="stroke:#000000;stroke-width:1.0;" x1="124" x2="329" y1="219.2188" y2="219.2188"/><text fill="#000000" font-family="sans-serif" font-size="14" font-weight="bold" lengthAdjust="spacing" textLength="32" x="129" y="235.752">user</text><text fill="#000000" font-family="sans-serif" font-size="14" lengthAdjust="spacing" textLength="73" x="213" y="235.752">user-3 data</text><line style="stroke:#000000;stroke-width:1.0;" x1="208" x2="208" y1="219.2188" y2="240.8281"/><rect fill="none" height="64.8281" rx="5" ry="5" style="stroke:#000000;stroke-width:1.5;" width="205" x="124" y="176"/><path d="M75,104.5 L88,104.5 C106.5233,104.5 107.3624,91.6425 124,83.5 C127.6428,81.7172 131.3836,79.9479 135.1811,78.2021 " fill="none" style="stroke:#000000;stroke-width:1.0;stroke-dasharray:3.0,3.0;"/><path d="M136.4271,80.9572 L137.2475,77.2676 L133.9352,75.447 L142.0689,75.0872 L136.4271,80.9572 " fill="#000000" style="stroke:#000000;stroke-width:1.0;"/><ellipse cx="75" cy="104.5" fill="#000000" rx="3" ry="3" style="stroke:#000000;stroke-width:1.0;"/><path d="M75,125.5 L88,125.5 C97.2633,125.5 106.8763,125.5 116.5221,125.5 " fill="none" style="stroke:#000000;stroke-width:1.0;stroke-dasharray:3.0,3.0;"/><path d="M116.5221,128.5947 L118.8432,125.5 L116.5221,122.4053 L124.2589,125.5 L116.5221,128.5947 " fill="#000000" style="stroke:#000000;stroke-width:1.0;"/><ellipse cx="75" cy="125.5" fill="#000000" rx="3" ry="3" style="stroke:#000000;stroke-width:1.0;"/><path d="M75,148.5 L88,148.5 C106.0917,148.5 107.5849,159.8939 124,167.5 C127.9382,169.3248 131.9817,171.149 136.0806,172.9582 " fill="none" style="stroke:#000000;stroke-width:1.0;stroke-dasharray:3.0,3.0;"/><path d="M134.8694,175.7349 L138.1632,173.8666 L137.2919,170.1815 L143.0224,175.9864 L134.8694,175.7349 " fill="#000000" style="stroke:#000000;stroke-width:1.0;"/><ellipse cx="75" cy="148.5" fill="#000000" rx="3" ry="3" style="stroke:#000000;stroke-width:1.0;"/><!--MD5=[cd3bfdf391a3cc9c5c0020a172007cf2]
@startjson
{
  "user-1": {
    "quizWords": "user-1 quiz words",
    "quizzes": "user-1 quizzes",
    "user": "user-1 data"
  },
  "user-2": {
    "quizWords": "user-2 quiz words",
    "quizzes": "user-2 quizzes",
    "user": "user-2 data"
  },
  "user-3": {
    "quizWords": "user-3 quiz words",
    "quizzes": "user-3 quizzes",
    "user": "user-3 data"
  }
}
@endjson

PlantUML version 1.2022.12(Sun Oct 23 20:12:26 CEST 2022)
(GPL source distribution)
Java Runtime: OpenJDK Runtime Environment
JVM: OpenJDK 64-Bit Server VM
Default Encoding: Cp1250
Language: en
Country: US
--></g></svg>