<?xml version="1.0" encoding="UTF-8" standalone="no"?><svg xmlns="http://www.w3.org/2000/svg" xmlns:xlink="http://www.w3.org/1999/xlink" contentStyleType="text/css" height="130px" preserveAspectRatio="none" style="width:502px;height:130px;background:#FFFFFF;" version="1.1" viewBox="0 0 502 130" width="502px" zoomAndPan="magnify"><defs/><g><rect fill="#F1F1F1" height="21.6094" rx="5" ry="5" style="stroke:#F1F1F1;stroke-width:1.5;" width="85" x="10" y="75"/><text fill="#000000" font-family="sans-serif" font-size="14" font-weight="bold" lengthAdjust="spacing" textLength="53" x="15" y="91.5332">quizzes</text><text fill="#000000" font-family="sans-serif" font-size="14" lengthAdjust="spacing" textLength="12" x="78" y="91.5332">   </text><line style="stroke:#000000;stroke-width:1.0;" x1="73" x2="73" y1="75" y2="96.6094"/><rect fill="none" height="21.6094" rx="5" ry="5" style="stroke:#000000;stroke-width:1.5;" width="85" x="10" y="75"/><rect fill="#F1F1F1" height="64.8281" rx="5" ry="5" style="stroke:#F1F1F1;stroke-width:1.5;" width="133" x="132" y="53.5"/><text fill="#000000" font-family="sans-serif" font-size="14" font-weight="bold" lengthAdjust="spacing" textLength="48" x="137" y="70.0332">zxcasd</text><text fill="#000000" font-family="sans-serif" font-size="14" lengthAdjust="spacing" textLength="12" x="203" y="70.0332">   </text><line style="stroke:#000000;stroke-width:1.0;" x1="198" x2="198" y1="53.5" y2="75.1094"/><line style="stroke:#000000;stroke-width:1.0;" x1="132" x2="265" y1="75.1094" y2="75.1094"/><text fill="#000000" font-family="sans-serif" font-size="14" font-weight="bold" lengthAdjust="spacing" textLength="56" x="137" y="91.6426">zxcasd2</text><text fill="#000000" font-family="sans-serif" font-size="14" lengthAdjust="spacing" textLength="57" x="203" y="91.6426">quiz data</text><line style="stroke:#000000;stroke-width:1.0;" x1="198" x2="198" y1="75.1094" y2="96.7188"/><line style="stroke:#000000;stroke-width:1.0;" x1="132" x2="265" y1="96.7188" y2="96.7188"/><text fill="#000000" font-family="sans-serif" font-size="14" font-weight="bold" lengthAdjust="spacing" textLength="56" x="137" y="113.252">zxcasd3</text><text fill="#000000" font-family="sans-serif" font-size="14" lengthAdjust="spacing" textLength="57" x="203" y="113.252">quiz data</text><line style="stroke:#000000;stroke-width:1.0;" x1="198" x2="198" y1="96.7188" y2="118.3281"/><rect fill="none" height="64.8281" rx="5" ry="5" style="stroke:#000000;stroke-width:1.5;" width="133" x="132" y="53.5"/><rect fill="#F1F1F1" height="108.0469" rx="5" ry="5" style="stroke:#F1F1F1;stroke-width:1.5;" width="188" x="302" y="10"/><text fill="#000000" font-family="sans-serif" font-size="14" font-weight="bold" lengthAdjust="spacing" textLength="119" x="307" y="26.5332">completedWords</text><text fill="#000000" font-family="sans-serif" font-size="14" lengthAdjust="spacing" textLength="8" x="436" y="26.5332">1</text><line style="stroke:#000000;stroke-width:1.0;" x1="431" x2="431" y1="10" y2="31.6094"/><line style="stroke:#000000;stroke-width:1.0;" x1="302" x2="490" y1="31.6094" y2="31.6094"/><text fill="#000000" font-family="sans-serif" font-size="14" font-weight="bold" lengthAdjust="spacing" textLength="13" x="307" y="48.1426">id</text><text fill="#000000" font-family="sans-serif" font-size="14" lengthAdjust="spacing" textLength="42" x="436" y="48.1426">zxcasd</text><line style="stroke:#000000;stroke-width:1.0;" x1="431" x2="431" y1="31.6094" y2="53.2188"/><line style="stroke:#000000;stroke-width:1.0;" x1="302" x2="490" y1="53.2188" y2="53.2188"/><text fill="#000000" font-family="sans-serif" font-size="14" font-weight="bold" lengthAdjust="spacing" textLength="39" x="307" y="69.752">mode</text><text fill="#000000" font-family="sans-serif" font-size="14" lengthAdjust="spacing" textLength="45" x="436" y="69.752">Classic</text><line style="stroke:#000000;stroke-width:1.0;" x1="431" x2="431" y1="53.2188" y2="74.8281"/><line style="stroke:#000000;stroke-width:1.0;" x1="302" x2="490" y1="74.8281" y2="74.8281"/><text fill="#000000" font-family="sans-serif" font-size="14" font-weight="bold" lengthAdjust="spacing" textLength="38" x="307" y="91.3613">name</text><text fill="#000000" font-family="sans-serif" font-size="14" lengthAdjust="spacing" textLength="49" x="436" y="91.3613">Animals</text><line style="stroke:#000000;stroke-width:1.0;" x1="431" x2="431" y1="74.8281" y2="96.4375"/><line style="stroke:#000000;stroke-width:1.0;" x1="302" x2="490" y1="96.4375" y2="96.4375"/><text fill="#000000" font-family="sans-serif" font-size="14" font-weight="bold" lengthAdjust="spacing" textLength="98" x="307" y="112.9707">wordsNumber</text><text fill="#000000" font-family="sans-serif" font-size="14" lengthAdjust="spacing" textLength="8" x="436" y="112.9707">4</text><line style="stroke:#000000;stroke-width:1.0;" x1="431" x2="431" y1="96.4375" y2="118.0469"/><rect fill="none" height="108.0469" rx="5" ry="5" style="stroke:#000000;stroke-width:1.5;" width="188" x="302" y="10"/><path d="M253,64 L266,64 C275.3136,64 285.004,64 294.7053,64 " fill="none" style="stroke:#000000;stroke-width:1.0;stroke-dasharray:3.0,3.0;"/><path d="M294.7053,67.1103 L297.038,64 L294.7053,60.8897 L302.481,64 L294.7053,67.1103 " fill="#000000" style="stroke:#000000;stroke-width:1.0;"/><ellipse cx="253" cy="64" fill="#000000" rx="3" ry="3" style="stroke:#000000;stroke-width:1.0;"/><path d="M83,86 L96,86 C105.292,86 115.0602,86 124.719,86 " fill="none" style="stroke:#000000;stroke-width:1.0;stroke-dasharray:3.0,3.0;"/><path d="M124.719,89.0846 L127.0324,86 L124.719,82.9154 L132.4304,86 L124.719,89.0846 " fill="#000000" style="stroke:#000000;stroke-width:1.0;"/><ellipse cx="83" cy="86" fill="#000000" rx="3" ry="3" style="stroke:#000000;stroke-width:1.0;"/><!--MD5=[2a7129b5e24493cf2c2364005f30b536]
@startjson
{
"quizzes": {
      "zxcasd": {
        "completedWords": 1,
        "id": "zxcasd",
        "mode": "Classic",
        "name": "Animals",
        "wordsNumber": 4
      },
      "zxcasd2":"quiz data",
      "zxcasd3":"quiz data"
    }
}
@endjson

PlantUML version 1.2022.12(Sun Oct 23 20:12:26 CEST 2022)
(GPL source distribution)
Java Runtime: OpenJDK Runtime Environment
JVM: OpenJDK 64-Bit Server VM
Default Encoding: Cp1250
Language: en
Country: US
--></g></svg>