<?xml version="1.0" encoding="UTF-8" standalone="no"?><svg xmlns="http://www.w3.org/2000/svg" xmlns:xlink="http://www.w3.org/1999/xlink" contentStyleType="text/css" height="163px" preserveAspectRatio="none" style="width:668px;height:163px;background:#FFFFFF;" version="1.1" viewBox="0 0 668 163" width="668px" zoomAndPan="magnify"><defs/><g><rect fill="#F1F1F1" height="21.6094" rx="5" ry="5" style="stroke:#F1F1F1;stroke-width:1.5;" width="106" x="10" y="108"/><text fill="#000000" font-family="sans-serif" font-size="14" font-weight="bold" lengthAdjust="spacing" textLength="74" x="15" y="124.5332">quizWords</text><text fill="#000000" font-family="sans-serif" font-size="14" lengthAdjust="spacing" textLength="12" x="99" y="124.5332">   </text><line style="stroke:#000000;stroke-width:1.0;" x1="94" x2="94" y1="108" y2="129.6094"/><rect fill="none" height="21.6094" rx="5" ry="5" style="stroke:#000000;stroke-width:1.5;" width="106" x="10" y="108"/><rect fill="#F1F1F1" height="64.8281" rx="5" ry="5" style="stroke:#F1F1F1;stroke-width:1.5;" width="142" x="153" y="86.5"/><text fill="#000000" font-family="sans-serif" font-size="14" font-weight="bold" lengthAdjust="spacing" textLength="48" x="158" y="103.0332">zxcasd</text><text fill="#000000" font-family="sans-serif" font-size="14" lengthAdjust="spacing" textLength="12" x="224" y="103.0332">   </text><line style="stroke:#000000;stroke-width:1.0;" x1="219" x2="219" y1="86.5" y2="108.1094"/><line style="stroke:#000000;stroke-width:1.0;" x1="153" x2="295" y1="108.1094" y2="108.1094"/><text fill="#000000" font-family="sans-serif" font-size="14" font-weight="bold" lengthAdjust="spacing" textLength="56" x="158" y="124.6426">zxcasd2</text><text fill="#000000" font-family="sans-serif" font-size="14" lengthAdjust="spacing" textLength="66" x="224" y="124.6426">quiz words</text><line style="stroke:#000000;stroke-width:1.0;" x1="219" x2="219" y1="108.1094" y2="129.7188"/><line style="stroke:#000000;stroke-width:1.0;" x1="153" x2="295" y1="129.7188" y2="129.7188"/><text fill="#000000" font-family="sans-serif" font-size="14" font-weight="bold" lengthAdjust="spacing" textLength="56" x="158" y="146.252">zxcasd3</text><text fill="#000000" font-family="sans-serif" font-size="14" lengthAdjust="spacing" textLength="66" x="224" y="146.252">quiz words</text><line style="stroke:#000000;stroke-width:1.0;" x1="219" x2="219" y1="129.7188" y2="151.3281"/><rect fill="none" height="64.8281" rx="5" ry="5" style="stroke:#000000;stroke-width:1.5;" width="142" x="153" y="86.5"/><rect fill="#F1F1F1" height="64.8281" rx="5" ry="5" style="stroke:#F1F1F1;stroke-width:1.5;" width="144" x="332" y="64.5"/><text fill="#000000" font-family="sans-serif" font-size="14" font-weight="bold" lengthAdjust="spacing" textLength="54" x="337" y="81.0332">qweasd</text><text fill="#000000" font-family="sans-serif" font-size="14" lengthAdjust="spacing" textLength="12" x="409" y="81.0332">   </text><line style="stroke:#000000;stroke-width:1.0;" x1="404" x2="404" y1="64.5" y2="86.1094"/><line style="stroke:#000000;stroke-width:1.0;" x1="332" x2="476" y1="86.1094" y2="86.1094"/><text fill="#000000" font-family="sans-serif" font-size="14" font-weight="bold" lengthAdjust="spacing" textLength="62" x="337" y="102.6426">qweasd2</text><text fill="#000000" font-family="sans-serif" font-size="14" lengthAdjust="spacing" textLength="62" x="409" y="102.6426">word data</text><line style="stroke:#000000;stroke-width:1.0;" x1="404" x2="404" y1="86.1094" y2="107.7188"/><line style="stroke:#000000;stroke-width:1.0;" x1="332" x2="476" y1="107.7188" y2="107.7188"/><text fill="#000000" font-family="sans-serif" font-size="14" font-weight="bold" lengthAdjust="spacing" textLength="62" x="337" y="124.252">qweasd3</text><text fill="#000000" font-family="sans-serif" font-size="14" lengthAdjust="spacing" textLength="62" x="409" y="124.252">word data</text><line style="stroke:#000000;stroke-width:1.0;" x1="404" x2="404" y1="107.7188" y2="129.3281"/><rect fill="none" height="64.8281" rx="5" ry="5" style="stroke:#000000;stroke-width:1.5;" width="144" x="332" y="64.5"/><rect fill="#F1F1F1" height="129.6563" rx="5" ry="5" style="stroke:#F1F1F1;stroke-width:1.5;" width="143" x="513" y="10"/><text fill="#000000" font-family="sans-serif" font-size="14" font-weight="bold" lengthAdjust="spacing" textLength="13" x="518" y="26.5332">id</text><text fill="#000000" font-family="sans-serif" font-size="14" lengthAdjust="spacing" textLength="48" x="603" y="26.5332">qweasd</text><line style="stroke:#000000;stroke-width:1.0;" x1="598" x2="598" y1="10" y2="31.6094"/><line style="stroke:#000000;stroke-width:1.0;" x1="513" x2="656" y1="31.6094" y2="31.6094"/><text fill="#000000" font-family="sans-serif" font-size="14" font-weight="bold" lengthAdjust="spacing" textLength="54" x="518" y="48.1426">learned</text><text fill="#000000" font-family="sans-serif" font-size="14" lengthAdjust="spacing" textLength="41" x="603" y="48.1426">☑ true</text><line style="stroke:#000000;stroke-width:1.0;" x1="598" x2="598" y1="31.6094" y2="53.2188"/><line style="stroke:#000000;stroke-width:1.0;" x1="513" x2="656" y1="53.2188" y2="53.2188"/><text fill="#000000" font-family="sans-serif" font-size="14" font-weight="bold" lengthAdjust="spacing" textLength="72" x="518" y="69.752">quizItemId</text><text fill="#000000" font-family="sans-serif" font-size="14" lengthAdjust="spacing" textLength="42" x="603" y="69.752">zxcasd</text><line style="stroke:#000000;stroke-width:1.0;" x1="598" x2="598" y1="53.2188" y2="74.8281"/><line style="stroke:#000000;stroke-width:1.0;" x1="513" x2="656" y1="74.8281" y2="74.8281"/><text fill="#000000" font-family="sans-serif" font-size="14" font-weight="bold" lengthAdjust="spacing" textLength="46" x="518" y="91.3613">repeat</text><text fill="#000000" font-family="sans-serif" font-size="14" lengthAdjust="spacing" textLength="8" x="603" y="91.3613">3</text><line style="stroke:#000000;stroke-width:1.0;" x1="598" x2="598" y1="74.8281" y2="96.4375"/><line style="stroke:#000000;stroke-width:1.0;" x1="513" x2="656" y1="96.4375" y2="96.4375"/><text fill="#000000" font-family="sans-serif" font-size="14" font-weight="bold" lengthAdjust="spacing" textLength="75" x="518" y="112.9707">translation</text><text fill="#000000" font-family="sans-serif" font-size="14" lengthAdjust="spacing" textLength="24" x="603" y="112.9707">dog</text><line style="stroke:#000000;stroke-width:1.0;" x1="598" x2="598" y1="96.4375" y2="118.0469"/><line style="stroke:#000000;stroke-width:1.0;" x1="513" x2="656" y1="118.0469" y2="118.0469"/><text fill="#000000" font-family="sans-serif" font-size="14" font-weight="bold" lengthAdjust="spacing" textLength="35" x="518" y="134.5801">word</text><text fill="#000000" font-family="sans-serif" font-size="14" lengthAdjust="spacing" textLength="26" x="603" y="134.5801">pies</text><line style="stroke:#000000;stroke-width:1.0;" x1="598" x2="598" y1="118.0469" y2="139.6563"/><rect fill="none" height="129.6563" rx="5" ry="5" style="stroke:#000000;stroke-width:1.5;" width="143" x="513" y="10"/><path d="M464,75 L477,75 C486.3078,75 496.071,75 505.7548,75 " fill="none" style="stroke:#000000;stroke-width:1.0;stroke-dasharray:3.0,3.0;"/><path d="M505.7548,78.0956 L508.0765,75 L505.7548,71.9044 L513.4938,75 L505.7548,78.0956 " fill="#000000" style="stroke:#000000;stroke-width:1.0;"/><ellipse cx="464" cy="75" fill="#000000" rx="3" ry="3" style="stroke:#000000;stroke-width:1.0;"/><path d="M283,97 L296,97 C305.2776,97 315.0057,97 324.6594,97 " fill="none" style="stroke:#000000;stroke-width:1.0;stroke-dasharray:3.0,3.0;"/><path d="M324.6594,100.0864 L326.9742,97 L324.6594,93.9136 L332.3755,97 L324.6594,100.0864 " fill="#000000" style="stroke:#000000;stroke-width:1.0;"/><ellipse cx="283" cy="97" fill="#000000" rx="3" ry="3" style="stroke:#000000;stroke-width:1.0;"/><path d="M104,119 L117,119 C126.2643,119 135.9819,119 145.6205,119 " fill="none" style="stroke:#000000;stroke-width:1.0;stroke-dasharray:3.0,3.0;"/><path d="M145.6205,122.0811 L147.9313,119 L145.6205,115.9189 L153.3233,119 L145.6205,122.0811 " fill="#000000" style="stroke:#000000;stroke-width:1.0;"/><ellipse cx="104" cy="119" fill="#000000" rx="3" ry="3" style="stroke:#000000;stroke-width:1.0;"/><!--MD5=[f7e6c310637a0d2e47c73da1c9442e4d]
@startjson
{
"quizWords": {
      "zxcasd": {
        "qweasd": {
          "id": "qweasd",
          "learned": true,
          "quizItemId": "zxcasd",
          "repeat": 3,
          "translation": "dog",
          "word": "pies"
        },
        "qweasd2": "word data",
        "qweasd3": "word data"
      },
      "zxcasd2": "quiz words",
      "zxcasd3": "quiz words"
    }
}
@endjson

PlantUML version 1.2022.12(Sun Oct 23 20:12:26 CEST 2022)
(GPL source distribution)
Java Runtime: OpenJDK Runtime Environment
JVM: OpenJDK 64-Bit Server VM
Default Encoding: Cp1250
Language: en
Country: US
--></g></svg>