<?xml version="1.0" encoding="UTF-8" standalone="no"?><svg xmlns="http://www.w3.org/2000/svg" xmlns:xlink="http://www.w3.org/1999/xlink" contentStyleType="text/css" height="108px" preserveAspectRatio="none" style="width:302px;height:108px;background:#FFFFFF;" version="1.1" viewBox="0 0 302 108" width="302px" zoomAndPan="magnify"><defs/><g><rect fill="#F1F1F1" height="21.6094" rx="5" ry="5" style="stroke:#F1F1F1;stroke-width:1.5;" width="64" x="10" y="42"/><text fill="#000000" font-family="sans-serif" font-size="14" font-weight="bold" lengthAdjust="spacing" textLength="32" x="15" y="58.5332">user</text><text fill="#000000" font-family="sans-serif" font-size="14" lengthAdjust="spacing" textLength="12" x="57" y="58.5332">Â Â Â </text><line style="stroke:#000000;stroke-width:1.0;" x1="52" x2="52" y1="42" y2="63.6094"/><rect fill="none" height="21.6094" rx="5" ry="5" style="stroke:#000000;stroke-width:1.5;" width="64" x="10" y="42"/><rect fill="#F1F1F1" height="86.4375" rx="5" ry="5" style="stroke:#F1F1F1;stroke-width:1.5;" width="179" x="111" y="10"/><text fill="#000000" font-family="sans-serif" font-size="14" font-weight="bold" lengthAdjust="spacing" textLength="89" x="116" y="26.5332">accountType</text><text fill="#000000" font-family="sans-serif" font-size="14" lengthAdjust="spacing" textLength="69" x="215" y="26.5332">Permanent</text><line style="stroke:#000000;stroke-width:1.0;" x1="210" x2="210" y1="10" y2="31.6094"/><line style="stroke:#000000;stroke-width:1.0;" x1="111" x2="290" y1="31.6094" y2="31.6094"/><text fill="#000000" font-family="sans-serif" font-size="14" font-weight="bold" lengthAdjust="spacing" textLength="68" x="116" y="48.1426">emojiIcon</text><text fill="#000000" font-family="sans-serif" font-size="14" lengthAdjust="spacing" textLength="14" x="215" y="48.1426">&#128002;</text><line style="stroke:#000000;stroke-width:1.0;" x1="210" x2="210" y1="31.6094" y2="53.2188"/><line style="stroke:#000000;stroke-width:1.0;" x1="111" x2="290" y1="53.2188" y2="53.2188"/><text fill="#000000" font-family="sans-serif" font-size="14" font-weight="bold" lengthAdjust="spacing" textLength="13" x="116" y="69.752">id</text><text fill="#000000" font-family="sans-serif" font-size="14" lengthAdjust="spacing" textLength="70" x="215" y="69.752">user-U0Ejb</text><line style="stroke:#000000;stroke-width:1.0;" x1="210" x2="210" y1="53.2188" y2="74.8281"/><line style="stroke:#000000;stroke-width:1.0;" x1="111" x2="290" y1="74.8281" y2="74.8281"/><text fill="#000000" font-family="sans-serif" font-size="14" font-weight="bold" lengthAdjust="spacing" textLength="38" x="116" y="91.3613">name</text><text fill="#000000" font-family="sans-serif" font-size="14" lengthAdjust="spacing" textLength="48" x="215" y="91.3613">Nifty Ox</text><line style="stroke:#000000;stroke-width:1.0;" x1="210" x2="210" y1="74.8281" y2="96.4375"/><rect fill="none" height="86.4375" rx="5" ry="5" style="stroke:#000000;stroke-width:1.5;" width="179" x="111" y="10"/><path d="M62,53 L75,53 C84.2468,53 93.8784,53 103.5105,53 " fill="none" style="stroke:#000000;stroke-width:1.0;stroke-dasharray:3.0,3.0;"/><path d="M103.5105,56.087 L105.8258,53 L103.5105,49.913 L111.2281,53 L103.5105,56.087 " fill="#000000" style="stroke:#000000;stroke-width:1.0;"/><ellipse cx="62" cy="53" fill="#000000" rx="3" ry="3" style="stroke:#000000;stroke-width:1.0;"/><!--MD5=[d1daa96a5686476bb0dc40e936efb5b8]
@startjson
{
"user": {
      "accountType": "Permanent",
      "emojiIcon": "ðŸ‚",
      "id": "user-U0Ejb",
      "name": "Nifty Ox"
    }
}
@endjson

PlantUML version 1.2022.12(Sun Oct 23 20:12:26 CEST 2022)
(GPL source distribution)
Java Runtime: OpenJDK Runtime Environment
JVM: OpenJDK 64-Bit Server VM
Default Encoding: Cp1250
Language: en
Country: US
--></g></svg>